<?xml version="1.0" encoding="UTF-8" standalone="no"?>
<svg
   xmlns:dc="http://purl.org/dc/elements/1.1/"
   xmlns:cc="http://creativecommons.org/ns#"
   xmlns:rdf="http://www.w3.org/1999/02/22-rdf-syntax-ns#"
   xmlns:svg="http://www.w3.org/2000/svg"
   xmlns="http://www.w3.org/2000/svg"
   xmlns:sodipodi="http://sodipodi.sourceforge.net/DTD/sodipodi-0.dtd"
   xmlns:inkscape="http://www.inkscape.org/namespaces/inkscape"
   id="Layer_1"
   data-name="Layer 1"
   width="1024"
   height="2122"
   viewBox="0 0 1024 2122"
   version="1.1"
   sodipodi:docname="wcrc-header.svg"
   inkscape:version="0.92.4 (5da689c313, 2019-01-14)">
  <metadata
     id="metadata22647">
    <rdf:RDF>
      <cc:Work
         rdf:about="">
        <dc:format>image/svg+xml</dc:format>
        <dc:type
           rdf:resource="http://purl.org/dc/dcmitype/StillImage" />
        <dc:title>Untitled-5</dc:title>
      </cc:Work>
    </rdf:RDF>
  </metadata>
  <sodipodi:namedview
     pagecolor="#ffffff"
     bordercolor="#666666"
     borderopacity="1"
     objecttolerance="10"
     gridtolerance="10"
     guidetolerance="10"
     inkscape:pageopacity="0"
     inkscape:pageshadow="2"
     inkscape:window-width="1920"
     inkscape:window-height="1017"
     id="namedview22645"
     showgrid="false"
     inkscape:zoom="0.44486334"
     inkscape:cx="111.1943"
     inkscape:cy="354.0306"
     inkscape:window-x="1072"
     inkscape:window-y="239"
     inkscape:window-maximized="1"
     inkscape:current-layer="Layer_1" />
  <defs
     id="defs22630">
    <clipPath
       id="clip-path">
      <path
         d="M0,2106.23Q254,2121.9,512,2122t512-15.77V0H0V2106.23Z"
         style="fill:#02314b"
         id="path22627" />
    </clipPath>
  </defs>
  <title
     id="title22632">Untitled-5</title>
  <path
     d="M0,2106.23Q254,2121.9,512,2122t512-15.77V0H0V2106.23Z"
     style="fill:#02314b"
     id="path22634" />
  <path
     style="fill:#033a58;fill-opacity:1;stroke-width:0.64785111"
     d="m 912.13412,2063.5063 c -19.21573,-15.998 -34.94768,-29.2641 -34.95987,-29.4801 -0.0122,-0.216 4.03893,-20.3502 9.00243,-44.7428 l 9.02458,-44.3501 5.4728,15.0566 5.4728,15.0567 45.77819,-16.0811 c 48.61875,-17.0789 50.05425,-17.6669 57.31915,-23.4917 1.7429,-1.3975 4.4657,-4.0938 6.0507,-5.992 1.585,-1.8982 2.984,-3.3991 3.1088,-3.335 0.4192,0.215 -19.00571,103.6201 -19.91871,106.0329 -1.50414,3.9758 -3.96546,7.187 -7.59783,9.9131 -3.2261,2.421 -5.1188,3.1767 -28.74469,11.4761 l -25.29117,8.8843 5.11023,15.0702 5.11027,15.0703 z m -127.21179,50.978 c -8.14546,0.7927 -14.92103,-0.4827 -23.00615,-4.3305 -6.0149,-2.8625 -7.85851,-4.1287 -11.92166,-8.1877 -8.02369,-8.0153 -11.87677,-16.2119 -12.86895,-27.3756 -0.69772,-7.8506 -0.40973,-10.968 2.60495,-28.1971 l 2.53071,-14.4633 47.29,-16.6121 47.29004,-16.6122 15.45957,44.0089 15.45957,44.009 -38.98214,13.6428 c -35.39725,12.3889 -39.43023,13.6868 -43.85604,14.1175 z M 690.9917,2057.925 c -21.67789,-18.4922 -40.46656,-34.7435 -41.75261,-36.114 -1.28606,-1.3706 -2.98788,-3.8694 -3.78186,-5.553 -2.80871,-5.9558 -2.55211,-9.6843 2.57151,-37.3705 2.61966,-14.1555 4.79372,-25.9234 4.8313,-26.1508 0.0376,-0.2273 -6.84061,-1.643 -15.28495,-3.1459 -8.44435,-1.5031 -15.2587,-2.9299 -15.14302,-3.1709 0.19835,-0.4131 84.63476,-32.047 85.00605,-31.8473 0.71026,0.382 68.221,60.5648 68.13656,60.7406 -0.0597,0.1238 -7.20834,-1.0873 -15.88617,-2.692 -8.67786,-1.6048 -15.8063,-2.8647 -15.84101,-2.8 -0.48255,0.8997 -16.92417,89.7926 -17.27841,93.4173 -0.75348,7.7097 -0.16183,14.3143 1.94177,21.6763 l 1.89511,6.6323 z m 235.67458,-142.6582 c -18.92766,-16.2531 -35.87889,-30.8296 -37.66942,-32.3923 l -3.25546,-2.8411 29.4547,-33.9965 c 16.20012,-18.6981 29.92084,-34.4997 30.4905,-35.1147 0.97502,-1.0525 2.82567,0.4152 31.55892,25.0295 18.88481,16.1776 31.76438,27.6752 33.77818,30.1541 4.2677,5.253 7.9562,13.9825 8.6477,20.4666 1.408,13.2031 -3.4241,28.077 -11.9158,36.6788 -6.5888,6.674 -8.24072,7.5404 -28.41634,14.9032 l -18.2591,6.6634 z m -213.41693,-27.5851 c -24.17269,-4.6379 -44.66738,-8.6165 -45.54378,-8.8415 -1.55645,-0.3992 -1.4251,-1.2938 5.67058,-38.6126 7.89069,-41.5004 8.18217,-42.8173 10.66532,-48.1835 7.49813,-16.2034 25.84842,-25.9148 45.04849,-23.8409 5.06849,0.5475 7.29467,1.2557 13.52853,4.3042 6.55331,3.2046 9.03826,4.9593 20.41126,14.4131 7.63287,6.3448 12.98138,11.2306 13.02712,11.8999 0.11276,1.6497 -17.96208,96.7161 -18.44811,97.0298 -0.22513,0.1448 -20.18672,-3.5306 -44.35941,-8.1685 z m 137.84639,-45.9457 c -35.47066,11.9125 -41.90421,13.9269 -41.19891,12.8995 0.45967,-0.6697 4.99274,-5.9572 10.07339,-11.75 5.08066,-5.7929 9.30341,-10.8329 9.38389,-11.2001 0.14833,-0.6768 -64.66524,-56.8289 -72.23853,-62.5848 -5.44178,-4.1359 -15.67276,-8.6032 -21.88335,-9.5551 l -4.98898,-0.7649 50.42357,-17.7235 c 54.42671,-19.1297 54.56962,-19.1693 61.2368,-17.8725 1.83593,0.3573 4.45692,1.3259 5.82432,2.1523 1.36739,0.8264 11.45198,9.1033 22.41008,18.3932 10.95815,9.2898 20.00611,16.946 20.10655,17.0137 0.10045,0.068 4.73242,-5.304 10.29307,-11.9372 5.56078,-6.6332 10.21826,-12.0194 10.35009,-11.9696 0.22244,0.084 -14.29723,84.8422 -15.17378,88.576 -0.21738,0.9262 -0.8877,1.8011 -1.48956,1.9444 -0.60176,0.1435 -20.00995,6.6131 -43.12908,14.3774 z"
     id="path23203"
     inkscape:connector-curvature="0" />
</svg>
