<?xml version="1.0" encoding="UTF-8" standalone="no"?>
<!-- Created with Inkscape (http://www.inkscape.org/) -->

<svg
   xmlns:dc="http://purl.org/dc/elements/1.1/"
   xmlns:cc="http://creativecommons.org/ns#"
   xmlns:rdf="http://www.w3.org/1999/02/22-rdf-syntax-ns#"
   xmlns:svg="http://www.w3.org/2000/svg"
   xmlns="http://www.w3.org/2000/svg"
   xmlns:sodipodi="http://sodipodi.sourceforge.net/DTD/sodipodi-0.dtd"
   xmlns:inkscape="http://www.inkscape.org/namespaces/inkscape"
   width="48.696621mm"
   height="47.788723mm"
   viewBox="0 0 48.696621 47.788723"
   version="1.1"
   id="svg23211"
   inkscape:version="0.92.4 (5da689c313, 2019-01-14)"
   sodipodi:docname="icon.svg">
  <defs
     id="defs23205" />
  <sodipodi:namedview
     id="base"
     pagecolor="#ffffff"
     bordercolor="#666666"
     borderopacity="1.0"
     inkscape:pageopacity="0.0"
     inkscape:pageshadow="2"
     inkscape:zoom="3.959798"
     inkscape:cx="83.485685"
     inkscape:cy="101.12513"
     inkscape:document-units="mm"
     inkscape:current-layer="layer1"
     showgrid="true"
     fit-margin-top="0"
     fit-margin-left="0"
     fit-margin-right="0"
     fit-margin-bottom="0"
     inkscape:window-width="1920"
     inkscape:window-height="1017"
     inkscape:window-x="1072"
     inkscape:window-y="239"
     inkscape:window-maximized="1">
    <inkscape:grid
       type="xygrid"
       id="grid23773"
       originx="-33.445342"
       originy="-235.71797" />
  </sodipodi:namedview>
  <metadata
     id="metadata23208">
    <rdf:RDF>
      <cc:Work
         rdf:about="">
        <dc:format>image/svg+xml</dc:format>
        <dc:type
           rdf:resource="http://purl.org/dc/dcmitype/StillImage" />
        <dc:title />
      </cc:Work>
    </rdf:RDF>
  </metadata>
  <g
     inkscape:label="Layer 1"
     inkscape:groupmode="layer"
     id="layer1"
     transform="translate(-33.445341,-13.493323)">
    <ellipse
       style="opacity:1;fill:#ffffff;fill-opacity:0.89447237;stroke:#003654;stroke-width:0.106662;stroke-miterlimit:4;stroke-dasharray:none;stroke-opacity:1;paint-order:fill markers stroke"
       id="path24330"
       cx="57.793652"
       cy="37.387684"
       rx="24.294979"
       ry="23.84103" />
    <path
       style="opacity:1;fill:#02314b;fill-opacity:1;stroke:#003654;stroke-width:0.41574803;stroke-miterlimit:4;stroke-dasharray:none;stroke-opacity:1;paint-order:fill markers stroke"
       d="M 218.19336,41.65625 A 102.02542,102.02542 0 0 0 116.16797,143.68164 102.02542,102.02542 0 0 0 218.19336,245.70703 102.02542,102.02542 0 0 0 320.21875,143.68164 102.02542,102.02542 0 0 0 218.19336,41.65625 Z m 7.82226,27.892578 c 22.11262,-0.0038 22.1697,-3e-6 24.41602,1.316406 0.61856,0.362457 1.44251,1.045024 1.83203,1.517578 0.38952,0.472555 2.9849,4.748378 5.76758,9.5 2.78268,4.751585 5.08163,8.669803 5.10937,8.707032 0.0265,0.0378 2.38666,-1.317407 5.24024,-3.009766 2.85358,-1.692397 5.22037,-3.048443 5.26172,-3.013672 0.0699,0.05858 -15.94696,28.864584 -16.73828,30.103514 -0.19616,0.30728 -0.54928,0.53832 -0.78516,0.51367 -0.23584,-0.0264 -8.07687,-0.15003 -17.42383,-0.27929 -14.34066,-0.19805 -16.92269,-0.28633 -16.53711,-0.56836 0.25134,-0.18369 2.56155,-1.52126 5.13477,-2.97071 2.57325,-1.44944 4.74066,-2.73489 4.81641,-2.85742 0.13946,-0.22601 -16.1663,-28.766966 -18.17383,-31.810544 -1.44254,-2.186986 -4.57422,-5.101122 -6.69922,-6.234375 L 205.5293,69.552734 Z M 196.125,71.035156 c 2.6134,8.04e-4 5.2841,0.581421 7.78906,1.777344 1.76338,0.841852 2.47858,1.381091 4.34571,3.275391 1.96278,1.991395 2.63892,2.941115 5.55078,7.804687 1.95428,3.264151 3.2677,5.711085 3.19922,5.958984 -0.16895,0.610848 -18.78243,32.694388 -18.99805,32.746098 -0.0998,0.0227 -6.85147,-3.84185 -15.00391,-8.58985 -8.15248,-4.74803 -15.05732,-8.78978 -15.3457,-8.98242 -0.51213,-0.34205 -0.35188,-0.64981 6.95508,-13.24414 8.12557,-14.005493 8.39886,-14.443238 9.97851,-16.068359 2.98125,-3.066993 7.17363,-4.679075 11.5293,-4.677735 z M 277.01172,115.75 c 0.51754,0.14625 1.68112,2.10535 8.03711,13.08789 4.77422,8.24935 7.97136,14.04305 8.38476,15.19531 0.87602,2.4418 1.101,6.06727 0.52735,8.5 -1.16807,4.95353 -4.80511,9.71809 -8.96875,11.75 -3.23055,1.57656 -3.93646,1.68162 -12.16797,1.78125 l -7.45117,0.0899 -8.68946,-15.0586 c -4.78012,-8.28211 -9.0588,-15.70743 -9.50781,-16.5 l -0.8164,-1.4414 14.9707,-8.55274 c 8.23381,-4.70388 15.20222,-8.67417 15.48633,-8.82422 0.0608,-0.0321 0.12137,-0.0482 0.19531,-0.0273 z m -99.52149,7.24414 c 0.20826,0.22828 16.97671,30.56822 16.92383,30.62109 -0.0378,0.0378 -2.46799,-1.30751 -5.40234,-2.99023 -2.93431,-1.68268 -5.3523,-3.0444 -5.37305,-3.02539 -0.28875,0.26419 -17.52668,30.32209 -18.11523,31.58789 -1.2519,2.69235 -1.87628,5.15635 -2.05078,8.08594 l -0.15821,2.63867 -9.98242,-17.16602 c -5.49025,-9.44126 -10.22073,-17.70432 -10.51172,-18.36328 -0.29102,-0.659 -0.58886,-1.77856 -0.66211,-2.48828 -0.25927,-2.51063 0.30771,-3.82809 5.67774,-13.18945 2.7456,-4.78632 5.02783,-8.76436 5.07031,-8.8418 0.0423,-0.0775 -2.26607,-1.4638 -5.12891,-3.08008 -2.8628,-1.61624 -5.14667,-2.99789 -5.07422,-3.07031 0.12435,-0.12435 34.67823,-0.83814 34.78711,-0.71875 z m 64.04493,34.83203 0.0664,6.14063 0.0664,6.14062 h 18.59765 c 19.75182,0 20.34575,-0.0312 23.7129,-1.21484 0.80783,-0.28384 2.13488,-0.91334 2.94921,-1.39844 0.81434,-0.4851 1.51183,-0.84951 1.54883,-0.81055 0.12435,0.13115 -20.03716,35.0578 -20.67383,35.81446 -1.049,1.24665 -2.346,2.09477 -4.00585,2.61914 -1.47425,0.46567 -2.25533,0.5 -11.85352,0.5 h -10.27539 l -0.0664,6.09765 -0.0664,6.09961 -8.93946,-14.95703 c -4.91671,-8.22652 -8.92149,-15.02189 -8.89843,-15.10156 0.0227,-0.0798 4.04575,-6.8465 8.93945,-15.03711 z m -66.35938,12.03321 h 19.21094 19.21289 v 17.8789 17.87891 l -15.83008,-0.0195 c -14.37464,-0.0151 -15.99909,-0.0602 -17.6543,-0.4668 v 0.002 c -3.04637,-0.74812 -5.33453,-2.06968 -7.76953,-4.48828 -1.81156,-1.79928 -2.31776,-2.49257 -3.27148,-4.47656 -1.88342,-3.91794 -2.23517,-7.37197 -1.17578,-11.53516 0.74498,-2.92766 1.2465,-4.01758 4.52539,-9.86523 z"
       transform="scale(0.26458333)"
       id="path23771"
       inkscape:connector-curvature="0" />
  </g>
</svg>
