<?xml version="1.0" encoding="UTF-8" standalone="no"?>
<!-- Created with Inkscape (http://www.inkscape.org/) -->

<svg
   xmlns:dc="http://purl.org/dc/elements/1.1/"
   xmlns:cc="http://creativecommons.org/ns#"
   xmlns:rdf="http://www.w3.org/1999/02/22-rdf-syntax-ns#"
   xmlns:svg="http://www.w3.org/2000/svg"
   xmlns="http://www.w3.org/2000/svg"
   xmlns:xlink="http://www.w3.org/1999/xlink"
   xmlns:sodipodi="http://sodipodi.sourceforge.net/DTD/sodipodi-0.dtd"
   xmlns:inkscape="http://www.inkscape.org/namespaces/inkscape"
   width="210.87337mm"
   height="93.390938mm"
   viewBox="0 0 210.87337 93.390938"
   version="1.1"
   id="svg924"
   sodipodi:docname="wcrc-footer.svg"
   inkscape:version="0.92.4 (5da689c313, 2019-01-14)">
  <defs
     id="defs918">
    <linearGradient
       inkscape:collect="always"
       id="linearGradient8041">
      <stop
         style="stop-color:#00304b;stop-opacity:1;"
         offset="0"
         id="stop8037" />
      <stop
         id="stop8045"
         offset="0.99999994"
         style="stop-color:#00304b;stop-opacity:1" />
      <stop
         style="stop-color:#00304b;stop-opacity:0;"
         offset="1"
         id="stop8039" />
    </linearGradient>
    <linearGradient
       inkscape:collect="always"
       xlink:href="#linearGradient8041"
       id="linearGradient8043"
       x1="-0.13249999"
       y1="89.299149"
       x2="211.30785"
       y2="91.567001"
       gradientUnits="userSpaceOnUse" />
  </defs>
  <sodipodi:namedview
     id="base"
     pagecolor="#ffffff"
     bordercolor="#666666"
     borderopacity="1.0"
     inkscape:pageopacity="0.0"
     inkscape:pageshadow="2"
     inkscape:zoom="0.7"
     inkscape:cx="-169.07455"
     inkscape:cy="154.13687"
     inkscape:document-units="mm"
     inkscape:current-layer="layer1"
     showgrid="false"
     inkscape:window-width="1920"
     inkscape:window-height="1017"
     inkscape:window-x="1072"
     inkscape:window-y="239"
     inkscape:window-maximized="1"
     fit-margin-top="0"
     fit-margin-left="0"
     fit-margin-right="0"
     fit-margin-bottom="0" />
  <metadata
     id="metadata921">
    <rdf:RDF>
      <cc:Work
         rdf:about="">
        <dc:format>image/svg+xml</dc:format>
        <dc:type
           rdf:resource="http://purl.org/dc/dcmitype/StillImage" />
        <dc:title />
      </cc:Work>
    </rdf:RDF>
  </metadata>
  <g
     inkscape:label="Layer 1"
     inkscape:groupmode="layer"
     id="layer1"
     transform="translate(0.13249999,-42.310766)">
    <path
       style="opacity:1;fill:url(#linearGradient8043);fill-opacity:1;stroke:none;stroke-width:0.26499999;stroke-miterlimit:4;stroke-dasharray:none;stroke-opacity:1"
       d="m 0,42.462132 c 0,0 70.898585,9.465953 105.26637,8.88244 34.7667,-0.590286 105.342,-8.88244 105.342,-8.88244 V 135.5692 H 0 Z"
       id="rect7769"
       inkscape:connector-curvature="0"
       sodipodi:nodetypes="cscccc" />
    <path
       sodipodi:type="inkscape:offset"
       inkscape:radius="0"
       inkscape:original="M 112.65625 125.91992 L 90.828125 125.92383 L 92.646484 126.89453 C 94.910688 128.10201 98.248158 131.20886 99.785156 133.53906 C 101.92419 136.782 119.2972 167.19093 119.14844 167.43164 C 119.06774 167.56221 116.75936 168.93216 114.01758 170.47656 C 111.27581 172.02096 108.8127 173.44483 108.54492 173.64062 C 108.13409 173.94103 110.88608 174.03501 126.16602 174.24609 C 136.12519 174.38367 144.47916 174.51872 144.73047 174.54492 C 144.98177 174.57118 145.35924 174.32351 145.56836 173.99609 C 146.41149 172.67601 163.4786 141.98242 163.4043 141.91992 C 163.36026 141.88287 160.8354 143.32764 157.79492 145.13086 C 154.75443 146.93409 152.24249 148.37759 152.21289 148.33789 C 152.18334 148.29818 149.73446 144.12336 146.76953 139.06055 C 143.80459 133.99775 141.03809 129.44296 140.62305 128.93945 C 140.20802 128.43594 139.32898 127.7085 138.66992 127.32227 C 136.27646 125.91961 136.2172 125.91592 112.65625 125.91992 z M 78.052734 127.70898 C 74.431452 128.25236 71.064635 129.87399 68.523438 132.48828 C 66.840288 134.21984 66.548384 134.68654 57.890625 149.60938 C 50.105223 163.02857 49.934776 163.35615 50.480469 163.7207 C 50.787719 163.92596 58.099257 168.31441 66.832031 173.29297 C 76.368899 178.72995 82.712007 182.46886 82.818359 182.44336 C 86.449883 175.96265 102.8807 148.2036 103.06055 147.55273 C 103.13353 147.2886 101.73463 144.68302 99.652344 141.20508 C 96.549733 136.02294 95.829627 135.0105 93.738281 132.88867 C 91.748879 130.87028 90.986299 130.29545 89.107422 129.39844 C 85.548712 127.69945 81.674017 127.16561 78.052734 127.70898 z M 166.78516 175.17773 C 166.48241 175.33759 159.0563 179.56814 150.2832 184.58008 L 134.33203 193.69336 L 135.20117 195.22852 C 135.67958 196.07299 140.2388 203.98401 145.33203 212.80859 L 154.5918 228.85352 L 162.5293 228.75781 C 171.29995 228.65167 172.05395 228.54114 175.49609 226.86133 C 179.93245 224.69634 183.80817 219.61783 185.05273 214.33984 C 185.66393 211.74778 185.42364 207.88495 184.49023 205.2832 C 184.04977 204.05546 180.64356 197.88342 175.55664 189.09375 C 167.81687 175.7202 167.30333 174.90412 166.78516 175.17773 z M 60.953125 182.86719 C 60.837094 182.73998 24.021009 183.50048 23.888672 183.63281 C 23.81148 183.71001 26.242647 185.18218 29.292969 186.9043 C 32.343291 188.62642 34.803072 190.10305 34.757812 190.18555 C 34.712554 190.26806 32.280895 194.50761 29.355469 199.60742 C 23.633751 209.58193 23.030551 210.98315 23.306641 213.6582 C 23.384688 214.4144 23.701687 215.6084 24.011719 216.31055 C 24.32175 217.0127 29.363025 225.81733 35.212891 235.87695 L 45.847656 254.16797 L 46.015625 251.35547 C 46.201559 248.23399 46.867292 245.60893 48.201172 242.74023 C 48.82829 241.39153 67.19619 209.36531 67.503906 209.08398 C 67.526046 209.06374 70.101992 210.51372 73.228516 212.30664 C 76.355039 214.09956 78.946578 215.53394 78.986328 215.49414 C 79.04266 215.43781 61.175094 183.11055 60.953125 182.86719 z M 129.19141 219.98047 L 119.71094 235.84766 C 114.49673 244.57473 110.212 251.78424 110.1875 251.86914 C 110.16296 251.95401 114.42922 259.19563 119.66797 267.96094 L 129.19141 283.89844 L 129.26367 277.39844 L 129.33398 270.90039 L 140.28125 270.90039 C 150.50809 270.90039 151.33937 270.86535 152.91016 270.36914 C 154.67877 269.81044 156.06199 268.90645 157.17969 267.57812 C 157.85807 266.77193 179.33948 229.55754 179.20703 229.41797 C 179.16761 229.37643 178.42627 229.76438 177.55859 230.28125 C 176.69092 230.79812 175.27673 231.46897 174.41602 231.77148 C 170.8283 233.03245 170.19586 233.06445 149.15039 233.06445 L 129.33398 233.06445 L 129.26367 226.52344 L 129.19141 219.98047 z M 58.486328 232.80078 L 55.552734 238.03125 C 52.059073 244.26189 51.526196 245.42357 50.732422 248.54297 C 49.603651 252.97887 49.979575 256.65943 51.986328 260.83398 C 53.002529 262.94793 53.540501 263.6844 55.470703 265.60156 C 58.065223 268.17855 60.504096 269.58767 63.75 270.38477 C 65.513643 270.81791 67.242462 270.86316 82.558594 270.88086 L 99.425781 270.90039 L 99.425781 251.85156 L 99.425781 232.80078 L 78.957031 232.80078 L 58.486328 232.80078 z "
       style="fill:#003654;fill-opacity:1;stroke-width:0.26458332"
       id="path1491"
       d="m 112.65625,125.91992 -21.828125,0.004 1.818359,0.9707 c 2.264204,1.20748 5.601674,4.31433 7.138672,6.64453 2.139034,3.24294 19.512044,33.65187 19.363284,33.89258 -0.0807,0.13057 -2.38908,1.50052 -5.13086,3.04492 -2.74177,1.5444 -5.20488,2.96827 -5.47266,3.16406 -0.41083,0.30041 2.34116,0.39439 17.6211,0.60547 9.95917,0.13758 18.31314,0.27263 18.56445,0.29883 0.2513,0.0263 0.62877,-0.22141 0.83789,-0.54883 0.84313,-1.32008 17.91024,-32.01367 17.83594,-32.07617 -0.044,-0.037 -2.5689,1.40772 -5.60938,3.21094 -3.04049,1.80323 -5.55243,3.24673 -5.58203,3.20703 -0.0296,-0.0397 -2.47843,-4.21453 -5.44336,-9.27734 -2.96494,-5.0628 -5.73144,-9.61759 -6.14648,-10.1211 -0.41503,-0.50351 -1.29407,-1.23095 -1.95313,-1.61718 -2.39346,-1.40266 -2.45272,-1.40635 -26.01367,-1.40235 z m -34.603516,1.78906 c -3.621282,0.54338 -6.988099,2.16501 -9.529296,4.7793 -1.68315,1.73156 -1.975054,2.19826 -10.632813,17.1211 -7.785402,13.41919 -7.955849,13.74677 -7.410156,14.11132 0.30725,0.20526 7.618788,4.59371 16.351562,9.57227 9.536868,5.43698 15.879976,9.17589 15.986328,9.15039 3.631524,-6.48071 20.062341,-34.23976 20.242191,-34.89063 0.073,-0.26413 -1.32592,-2.86971 -3.408206,-6.34765 -3.102611,-5.18214 -3.822717,-6.19458 -5.914063,-8.31641 -1.989402,-2.01839 -2.751982,-2.59322 -4.630859,-3.49023 -3.55871,-1.69899 -7.433405,-2.23283 -11.054688,-1.68946 z m 88.732426,47.46875 c -0.30275,0.15986 -7.72886,4.39041 -16.50196,9.40235 l -15.95117,9.11328 0.86914,1.53516 c 0.47841,0.84447 5.03763,8.75549 10.13086,17.58007 l 9.25977,16.04493 7.9375,-0.0957 c 8.77065,-0.10614 9.52465,-0.21667 12.96679,-1.89648 4.43636,-2.16499 8.31208,-7.2435 9.55664,-12.52149 0.6112,-2.59206 0.37091,-6.45489 -0.5625,-9.05664 -0.44046,-1.22774 -3.84667,-7.39978 -8.93359,-16.18945 -7.73977,-13.37355 -8.25331,-14.18963 -8.77148,-13.91602 z m -105.832035,7.68946 c -0.116031,-0.12721 -36.932116,0.63329 -37.064453,0.76562 -0.07719,0.0772 2.353975,1.54937 5.404297,3.27149 3.050322,1.72212 5.510103,3.19875 5.464843,3.28125 -0.04526,0.0825 -2.476917,4.32206 -5.402343,9.42187 -5.721718,9.97451 -6.324918,11.37573 -6.048828,14.05078 0.07805,0.7562 0.395046,1.9502 0.705078,2.65235 0.310031,0.70215 5.351306,9.50678 11.201172,19.5664 l 10.634765,18.29102 0.167969,-2.8125 c 0.185934,-3.12148 0.851667,-5.74654 2.185547,-8.61524 0.627118,-1.3487 18.995018,-33.37492 19.302734,-33.65625 0.02214,-0.0202 2.598086,1.42974 5.72461,3.22266 3.126523,1.79292 5.718062,3.2273 5.757812,3.1875 0.05633,-0.0563 -17.811234,-32.38359 -18.033203,-32.62695 z m 68.238285,37.11328 -9.48047,15.86719 c -5.21421,8.72707 -9.49894,15.93658 -9.52344,16.02148 -0.0245,0.0849 4.24172,7.32649 9.48047,16.0918 l 9.52344,15.9375 0.0723,-6.5 0.0703,-6.49805 h 10.94727 c 10.22684,0 11.05812,-0.035 12.62891,-0.53125 1.76861,-0.5587 3.15183,-1.46269 4.26953,-2.79102 0.67838,-0.80619 22.15979,-38.02058 22.02734,-38.16015 -0.0394,-0.0415 -0.78076,0.34641 -1.64844,0.86328 -0.86767,0.51687 -2.28186,1.18772 -3.14257,1.49023 -3.58772,1.26097 -4.22016,1.29297 -25.26563,1.29297 h -19.81641 l -0.0703,-6.54101 z m -70.705082,12.82031 -2.933594,5.23047 c -3.493661,6.23064 -4.026538,7.39232 -4.820312,10.51172 -1.128771,4.4359 -0.752847,8.11646 1.253906,12.29101 1.016201,2.11395 1.554173,2.85042 3.484375,4.76758 2.59452,2.57699 5.033393,3.98611 8.279297,4.78321 1.763643,0.43314 3.492462,0.47839 18.808594,0.49609 l 16.867187,0.0195 v -19.04883 -19.05078 h -20.46875 z"
       transform="matrix(0.3775066,-0.14046614,0.14046614,0.3775066,100.98251,39.353487)" />
  </g>
</svg>
